#!OML:ASF H:\Terrain\Walking\May29\JustinRory\Justin.ASF
:FULLY-SPECIFIED
:DEGREES
627
root 16.81 9.93106 -6.63939 -104.576 -85.4487 82.3059
lowerback 42.8882 4.04925 1.08831
upperback 16.02 3.01168 2.15681
thorax -2.39863 0.363947 0.666083
lowerneck -11.6644 18.0812 -1.42028
upperneck 9.64891 25.4478 -6.82765
head 5.50631 11.9734 0.269079
rclavicle -2.3059e-014 -1.59028e-015
rhumerus 22.0889 27.6987 -61.8807
rradius 65.7013
rwrist 13.2035
rhand -2.01951 20.444
rfingers 7.12502
rthumb 23.6547 -8.12074
lclavicle -2.3059e-014 -1.59028e-015
lhumerus 32.4579 -33.3449 77.606
lradius 50.9605
lwrist -26.8662
lhand 16.6734 35.9064
lfingers 7.12502
lthumb 41.4244 60.6863
rfemur -67.3073 -11.7237 12.802
rtibia 73.2112
rfoot 19.557 -0.183947
rtoes 18.7222
lfemur -66.0583 6.797 -14.361
ltibia 72.6359
lfoot 20.2797 2.41962
ltoes 37.9569
628
root 16.8104 9.92814 -6.64146 -104.883 -85.5658 82.6306
lowerback 42.9934 4.19998 1.62137
upperback 16.0851 3.38101 1.91139
thorax -2.3074 0.586967 0.00197903
lowerneck -12.3103 17.7461 -0.13414
upperneck 10.1471 24.9036 -7.05908
head 5.93641 11.6736 0.121341
rclavicle 8.74653e-015 7.15625e-015
rhumerus 21.704 26.4022 -62.6198
rradius 65.5496
rwrist 13.3914
rhand -2.1091 20.5687
rfingers 7.12502
rthumb 23.5687 -8.0071
lclavicle 8.74653e-015 7.15625e-015
lhumerus 33.5216 -34.6325 76.431
lradius 50.8705
lwrist -26.3636
lhand 17.3044 35.9276
lfingers 7.12502
lthumb 42.0162 60.5122
rfemur -67.3169 -11.6614 12.9474
rtibia 73.2027
rfoot 19.5237 -0.0549116
rtoes 18.0094
lfemur -66.1036 6.88718 -14.2657
ltibia 72.5944
lfoot 20.388 2.30889
ltoes 37.7362
629
root 16.817 9.92864 -6.64393 -105.096 -85.6224 82.8777
lowerback 42.845 3.96939 1.39264
upperback 16.0284 3.02751 2.05782
thorax -2.35445 0.394271 0.402355
lowerneck -11.3281 17.8427 -0.73717
upperneck 9.50356 25.1243 -7.71049
head 5.60097 11.7869 -0.0937406
rclavicle -3.02153e-014 -5.56597e-015
rhumerus 22.2347 27.4404 -62.282
rradius 65.4229
rwrist 13.3458
rhand -2.20873 20.3251
rfingers 7.12502
rthumb 23.4732 -8.26294
lclavicle -3.02153e-014 -5.56597e-015
lhumerus 32.9479 -33.6631 76.8525
lradius 50.8309
lwrist -26.4502
lhand 17.3367 35.7745
lfingers 7.12502
lthumb 42.0465 60.349
rfemur -67.3332 -11.5743 13.0049
rtibia 73.1641
rfoot 19.5194 -0.0975815
rtoes 18.1187
lfemur -66.137 6.93013 -14.2197
ltibia 72.5625
lfoot 20.4309 2.25675
ltoes 37.1444
630
root 16.8188 9.91927 -6.64211 -105.286 -85.4287 83.0593
lowerback 42.6581 3.86565 0.971331
upperback 16.0373 2.74136 2.14874
thorax -2.32094 0.227142 0.818402
lowerneck -10.6905 17.9233 -1.28248
upperneck 9.30926 25.3035 -8.01442
head 5.42187 11.8715 -0.172519
rclavicle 0 -1.90833e-014
rhumerus 22.6998 28.2805 -61.9568
rradius 65.2834
rwrist 13.3999
rhand -2.33782 20.1882
rfingers 7.12502
rthumb 23.3493 -8.41561
lclavicle 0 -1.90833e-014
lhumerus 32.3945 -32.8151 77.1821
lradius 51.0314
lwrist -26.5722
lhand 17.846 35.8886
lfingers 7.12502
lthumb 42.5234 60.3008
rfemur -67.4234 -11.5122 12.7925
rtibia 73.1562
rfoot 19.6352 -0.0961692
rtoes 18.1309
lfemur -66.1578 6.93566 -14.4129
ltibia 72.5782
lfoot 20.4591 2.28467
ltoes 36.7064
631
root 16.8224 9.90898 -6.63731 -106.644 -85.6207 84.3656
lowerback 42.7324 3.75602 1.28273
upperback 16.0352 2.71969 2.11209
thorax -2.32456 0.231078 0.629022
lowerneck -10.668 17.7958 -1.04863
upperneck 9.70992 25.1725 -8.24729
head 5.6014 11.7703 -0.246483
rclavicle -2.62396e-014 2.14687e-014
rhumerus 22.7458 28.2212 -62.1571
rradius 65.1493
rwrist 13.7076
rhand -2.42989 20.0683
rfingers 7.12502
rthumb 23.261 -8.54671
lclavicle -2.62396e-014 2.14687e-014
lhumerus 32.3399 -32.8411 77.034
lradius 51.3677
lwrist -26.733
lhand 18.9965 36.425
lfingers 7.12502
lthumb 43.5991 60.4558
rfemur -67.3717 -11.3936 13.0191
rtibia 73.0954
rfoot 19.6951 -0.0831521
rtoes 17.6421
lfemur -66.1493 6.92103 -14.1233
ltibia 72.6268
lfoot 20.4386 2.24972
ltoes 37.0936
632
root 16.8281 9.91263 -6.63359 -108.476 -86.1001 86.0548
lowerback 42.9224 3.57417 1.91728
upperback 16.0627 2.72814 2.12872
thorax -2.31082 0.257173 0.32058
lowerneck -10.878 17.6052 -0.846445
upperneck 10.2581 24.9686 -8.34661
head 5.84047 11.6236 -0.261737
rclavicle -9.54166e-015 -1.59028e-015
rhumerus 22.7774 28.1069 -62.2324
rradius 65.1916
rwrist 13.7376
rhand -2.22194 19.8598
rfingers 7.12502
rthumb 23.4605 -8.72988
lclavicle -9.54166e-015 -1.59028e-015
lhumerus 32.4059 -33.0014 76.8046
lradius 51.6162
lwrist -26.8151
lhand 19.88 36.3128
lfingers 7.12502
lthumb 44.4233 60.0359
rfemur -67.0837 -11.3164 13.5186
rtibia 73.0298
rfoot 19.6067 -0.0772232
rtoes 17.2176
lfemur -66.005 6.85807 -13.521
ltibia 72.7084
lfoot 20.3775 2.13134
ltoes 37.2737
